# xmcd
#
# Track frame offsets:
#	150
#	12848
#	27136
#	40861
#	57382
#	73944
#	92857
#	110793
#	126404
#	141651
#	157945
#	171767
#	189549
#	204836
#
# Disc length: 2930 seconds
#
# Revision: 0
# Processed by: cddbd v1.5.2PL0 Copyright (c) Steve Scherf et al.
# Submitted via: EasyCDDAExtractor 2010.4.0.0
#
DISCID=ca0b700e
DTITLE=Milionário and José Rico - Nossa História
DYEAR=2010
DGENRE=country
TTITLE0=Dê Amor Pra Quem Te Amo
TTITLE1=Berço de Deus
TTITLE2=Saudade de Minha Terra
TTITLE3=Viva a Vida! - ao vivo
TTITLE4=Desventura
TTITLE5=Eterno Apaixonado
TTITLE6=Fim de Noite
TTITLE7=Triste Lição
TTITLE8=Meu Primeiro Amor (Lejania)
TTITLE9=Quem Disse Que Esqueci
TTITLE10=Vá Pro Inferno Com Seu Amor - ao vivo
TTITLE11=Vontade Dividida
TTITLE12=Ninguém é de Ninguém
TTITLE13=Mentira Também é Verdade
EXTD=
EXTT0=
EXTT1=
EXTT2=
EXTT3=
EXTT4=
EXTT5=
EXTT6=
EXTT7=
EXTT8=
EXTT9=
EXTT10=
EXTT11=
EXTT12=
EXTT13=
PLAYORDER=
